<svg id="Laag_1" data-name="Laag 1" xmlns="http://www.w3.org/2000/svg" xmlns:xlink="http://www.w3.org/1999/xlink" viewBox="0 0 338.23 76.47"><defs><style>.cls-1{fill:url(#Naamloos_verloop_34);}.cls-2{fill:url(#Naamloos_verloop_34-2);}.cls-3{fill:url(#Naamloos_verloop_34-3);}.cls-4{fill:url(#Naamloos_verloop_34-4);}.cls-5{fill:url(#Naamloos_verloop_34-5);}</style><linearGradient id="Naamloos_verloop_34" x1="91.52" y1="212.07" x2="321.39" y2="212.07" gradientUnits="userSpaceOnUse"><stop offset="0" stop-color="#28348a"/><stop offset="0" stop-color="#04befe"/><stop offset="0.49" stop-color="#06bcfd"/><stop offset="0.67" stop-color="#0db6fb"/><stop offset="0.8" stop-color="#18aaf8"/><stop offset="0.9" stop-color="#299af3"/><stop offset="0.98" stop-color="#3f86ec"/><stop offset="1" stop-color="#4481eb"/></linearGradient><linearGradient id="Naamloos_verloop_34-2" x1="91.71" y1="212.04" x2="320.59" y2="212.04" xlink:href="#Naamloos_verloop_34"/><linearGradient id="Naamloos_verloop_34-3" x1="98.51" y1="212.07" x2="323.84" y2="212.07" xlink:href="#Naamloos_verloop_34"/><linearGradient id="Naamloos_verloop_34-4" x1="88.6" y1="212.07" x2="316.34" y2="212.07" xlink:href="#Naamloos_verloop_34"/><linearGradient id="Naamloos_verloop_34-5" x1="99.04" y1="212.07" x2="326.78" y2="212.07" xlink:href="#Naamloos_verloop_34"/></defs><path class="cls-1" d="M194.44,181q-7.08-6.15-21.17-6.15H147.53v74.38h20.09V224.58h5.65q13.53,0,20.89-6.79t7.35-19.26Q201.51,187.19,194.44,181Zm-15.95,24.63a10,10,0,0,1-7.2,2.54h-3.67V191.11h5.19q8.35,0,8.35,7.53A9.25,9.25,0,0,1,178.49,205.66Z" transform="translate(-93.12 -173.81)"/><path class="cls-2" d="M243.23,221.23h13.28v11.65a37.25,37.25,0,0,1-8.25.86q-8.19,0-12.54-5.47t-4.35-15.9q0-10.63,4.81-16.35t13.61-5.73a39.3,39.3,0,0,1,17.66,4l6.35-15.77a55.34,55.34,0,0,0-10.86-3.36,63.81,63.81,0,0,0-13.25-1.32q-18.52,0-28.8,10t-10.27,28q0,18.48,9.38,28.44t26.59,10a88.39,88.39,0,0,0,28.74-4.48V205.71h-32.1Z" transform="translate(-93.12 -173.81)"/><path class="cls-3" d="M333.18,227.69h-.41l-15.52-52.81H290.49v74.38H308.3V217q0-7.57-1.07-21.27h.46l15.21,53.58H342l15-53.47h.46q-.62,12.11-.69,15.21c-.05,2.07-.08,3.95-.08,5.65v32.61H375.2V174.88H348.39Z" transform="translate(-93.12 -173.81)"/><path class="cls-4" d="M137.22,179.82l-3.88-3.88a4.1,4.1,0,0,0-5.8,0L94.32,209.17a4.1,4.1,0,0,0,0,5.8l33.22,33.22a4.1,4.1,0,0,0,5.8,0l3.88-3.88a4.09,4.09,0,0,0,0-5.79L110.9,212.07l26.33-26.46A4.1,4.1,0,0,0,137.22,179.82Z" transform="translate(-93.12 -173.81)"/><path class="cls-5" d="M430.15,209.17l-33.23-33.23a4.1,4.1,0,0,0-5.8,0l-3.87,3.88a4.09,4.09,0,0,0,0,5.79l26.33,26.46-26.33,26.45a4.09,4.09,0,0,0,0,5.79l3.87,3.88a4.12,4.12,0,0,0,5.81,0L430.15,215A4.1,4.1,0,0,0,430.15,209.17Z" transform="translate(-93.12 -173.81)"/></svg>